<?xml version="1.0" encoding="UTF-8"?>
<svg width="800" height="600" xmlns="http://www.w3.org/2000/svg">
  <defs>
    <style>
      .polygon { fill: #e8f4fd; stroke: #2196f3; stroke-width: 2; }
      .hole { fill: white; stroke: #f44336; stroke-width: 2; stroke-dasharray: 5,5; }
      .triangle { fill: none; stroke: #ddd; stroke-width: 0.5; opacity: 0.5; }
      .point-start { fill: #4caf50; stroke: #2e7d32; stroke-width: 2; }
      .point-end { fill: #ff9800; stroke: #f57c00; stroke-width: 2; }
      .point-outside { fill: #f44336; stroke: #c62828; stroke-width: 2; }
      .point-hole { fill: #9c27b0; stroke: #6a1b9a; stroke-width: 2; }
      .path { fill: none; stroke: #4caf50; stroke-width: 3; stroke-linecap: round; }
      .path-arrow { fill: #4caf50; }
      .label { font-family: Arial, sans-serif; font-size: 12px; fill: #333; }
      .title { font-family: Arial, sans-serif; font-size: 16px; font-weight: bold; fill: #333; }
    </style>
  </defs>
  
  <!-- Background -->
  <rect width="800" height="600" fill="#fafafa"/>
  <text x="400" y="30" class="title" text-anchor="middle" style="font-size: 20px;">Test: Successful paths inside polygons</text>
  <path d="M 50 50 L 300 50 L 300 300 L 50 300 Z" class="polygon" style="fill: #e3f2fd"/>
  <path d="M 150 150 L 200 150 L 200 200 L 150 200 Z" class="hole"/>
  <text x="175" y="175" class="title" text-anchor="middle">Polygon 1</text>
  <path d="M 350 50 L 550 50 L 550 200 L 450 200 L 450 300 L 350 300 Z" class="polygon" style="fill: #f3e5f5"/>
  <path d="M 475 100 L 525 100 L 525 150 L 475 150 Z" class="hole"/>
  <text x="450" y="183.33333333333334" class="title" text-anchor="middle">Polygon 2</text>
  <path d="M 150 350 L 350 350 L 250 550 Z" class="polygon" style="fill: #e8f5e8"/>
  <path d="M 225 400 L 275 400 L 250 450 Z" class="hole"/>
  <text x="250" y="416.66666666666663" class="title" text-anchor="middle">Polygon 3</text>
  <path d="M 50 50 L 150 150 L 150 200 Z" class="triangle"/>
  <path d="M 200 150 L 150 150 L 50 50 Z" class="triangle"/>
  <path d="M 50 300 L 50 50 L 150 200 Z" class="triangle"/>
  <path d="M 200 150 L 50 50 L 300 50 Z" class="triangle"/>
  <path d="M 300 300 L 50 300 L 150 200 Z" class="triangle"/>
  <path d="M 200 200 L 200 150 L 300 50 Z" class="triangle"/>
  <path d="M 300 300 L 150 200 L 200 200 Z" class="triangle"/>
  <path d="M 200 200 L 300 50 L 300 300 Z" class="triangle"/>
  <path d="M 350 50 L 475 100 L 475 150 Z" class="triangle"/>
  <path d="M 525 100 L 475 100 L 350 50 Z" class="triangle"/>
  <path d="M 450 200 L 450 300 L 350 300 Z" class="triangle"/>
  <path d="M 350 300 L 350 50 L 475 150 Z" class="triangle"/>
  <path d="M 525 100 L 350 50 L 550 50 Z" class="triangle"/>
  <path d="M 450 200 L 350 300 L 475 150 Z" class="triangle"/>
  <path d="M 525 150 L 525 100 L 550 50 Z" class="triangle"/>
  <path d="M 550 200 L 450 200 L 475 150 Z" class="triangle"/>
  <path d="M 525 150 L 550 50 L 550 200 Z" class="triangle"/>
  <path d="M 550 200 L 475 150 L 525 150 Z" class="triangle"/>
  <path d="M 150 350 L 225 400 L 250 450 Z" class="triangle"/>
  <path d="M 275 400 L 225 400 L 150 350 Z" class="triangle"/>
  <path d="M 250 550 L 150 350 L 250 450 Z" class="triangle"/>
  <path d="M 275 400 L 150 350 L 350 350 Z" class="triangle"/>
  <path d="M 350 350 L 250 550 L 250 450 Z" class="triangle"/>
  <path d="M 250 450 L 275 400 L 350 350 Z" class="triangle"/>
  <circle cx="100" cy="100" r="4" class="point-start"/>
  <text x="108" y="92" class="label">A1</text>
  <circle cx="250" cy="250" r="4" class="point-end"/>
  <text x="258" y="242" class="label">B1</text>
  <path d="M 100 100 L 150 200 L 150 200 L 250 250" class="path"/>
  <polygon points="126.34164078649988,152.68328157299976 123.65835921350012,150.67082039324993 126.34164078649988,149.32917960675007" class="path-arrow"/>
  <polygon points="NaN,NaN NaN,NaN NaN,NaN" class="path-arrow"/>
  <polygon points="202.68328157299976,226.34164078649988 199.32917960675007,226.34164078649988 200.67082039324993,223.65835921350012" class="path-arrow"/>
  <text x="150" y="185" class="label" text-anchor="middle" style="background: white;">A1 → B1</text>
  <circle cx="375" cy="100" r="4" class="point-start"/>
  <text x="383" y="92" class="label">A2</text>
  <circle cx="425" cy="250" r="4" class="point-end"/>
  <text x="433" y="242" class="label">B2</text>
  <path d="M 375 100 L 425 250" class="path"/>
  <polygon points="400.9486832980505,177.84604989415155 398.57697505292424,175.47434164902526 401.42302494707576,174.52565835097474" class="path-arrow"/>
  <text x="425" y="235" class="label" text-anchor="middle" style="background: white;">A2 → B2</text>
  <circle cx="200" cy="400" r="4" class="point-start"/>
  <text x="208" y="392" class="label">A3</text>
  <circle cx="300" cy="425" r="4" class="point-end"/>
  <text x="308" y="417" class="label">B3</text>
  <path d="M 200 400 L 250 450 L 300 425" class="path"/>
  <polygon points="227.12132034355963,427.12132034355966 223.93933982822017,426.06066017177983 226.06066017177983,423.93933982822017" class="path-arrow"/>
  <polygon points="277.68328157299976,436.15835921350015 275.6708203932499,438.84164078649985 274.3291796067501,436.15835921350015" class="path-arrow"/>
  <text x="250" y="435" class="label" text-anchor="middle" style="background: white;">A3 → B3</text>
  <rect x="610" y="50" width="170" height="180" fill="white" stroke="#ddd" stroke-width="1"/>
  <text x="620" y="60" class="title">Legend:</text>
  <rect x="620" y="77" width="12" height="12" fill="#e8f4fd" stroke="#2196f3" stroke-width="1" />
  <text x="640" y="87" class="label">Polygon</text>
  <rect x="620" y="97" width="12" height="12" fill="white" stroke="#f44336" stroke-width="1" stroke-dasharray="3,3"/>
  <text x="640" y="107" class="label">Hole</text>
  <circle cx="626" cy="123" r="4" fill="#4caf50" stroke="#333" stroke-width="1"/>
  <text x="640" y="127" class="label">Start point</text>
  <circle cx="626" cy="143" r="4" fill="#ff9800" stroke="#333" stroke-width="1"/>
  <text x="640" y="147" class="label">End point</text>
  <circle cx="626" cy="163" r="4" fill="#f44336" stroke="#333" stroke-width="1"/>
  <text x="640" y="167" class="label">Point outside navmesh</text>
  <circle cx="626" cy="183" r="4" fill="#9c27b0" stroke="#333" stroke-width="1"/>
  <text x="640" y="187" class="label">Point in hole</text>
  <line x1="620" y1="203" x2="632" y2="203" stroke="#4caf50" stroke-width="2"/>
  <text x="640" y="207" class="label">Found path</text>
</svg>