<?xml version="1.0" encoding="UTF-8"?>
<svg width="600" height="600" xmlns="http://www.w3.org/2000/svg">
  <defs>
    <style>
      .polygon { fill: #e8f4fd; stroke: #2196f3; stroke-width: 2; }
      .hole { fill: white; stroke: #f44336; stroke-width: 2; stroke-dasharray: 5,5; }
      .triangle { fill: none; stroke: #ddd; stroke-width: 0.5; opacity: 0.5; }
      .point-start { fill: #4caf50; stroke: #2e7d32; stroke-width: 2; }
      .point-end { fill: #ff9800; stroke: #f57c00; stroke-width: 2; }
      .point-outside { fill: #f44336; stroke: #c62828; stroke-width: 2; }
      .point-hole { fill: #9c27b0; stroke: #6a1b9a; stroke-width: 2; }
      .path { fill: none; stroke: #4caf50; stroke-width: 3; stroke-linecap: round; }
      .path-arrow { fill: #4caf50; }
      .label { font-family: Arial, sans-serif; font-size: 12px; fill: #333; }
      .title { font-family: Arial, sans-serif; font-size: 16px; font-weight: bold; fill: #333; }
    </style>
  </defs>
  
  <!-- Background -->
  <rect width="600" height="600" fill="#fafafa"/>
  <text x="300" y="30" class="title" text-anchor="middle" style="font-size: 20px;">Detailed view: Polygon 1 with triangulation</text>
  <path d="M 50 50 L 300 50 L 300 300 L 50 300 Z" class="polygon" style="fill: #e3f2fd"/>
  <path d="M 150 150 L 200 150 L 200 200 L 150 200 Z" class="hole"/>
  <path d="M 50 50 L 150 150 L 150 200 Z" class="triangle"/>
  <path d="M 200 150 L 150 150 L 50 50 Z" class="triangle"/>
  <path d="M 50 300 L 50 50 L 150 200 Z" class="triangle"/>
  <path d="M 200 150 L 50 50 L 300 50 Z" class="triangle"/>
  <path d="M 300 300 L 50 300 L 150 200 Z" class="triangle"/>
  <path d="M 200 200 L 200 150 L 300 50 Z" class="triangle"/>
  <path d="M 300 300 L 150 200 L 200 200 Z" class="triangle"/>
  <path d="M 200 200 L 300 50 L 300 300 Z" class="triangle"/>
  <circle cx="116.66666666666667" cy="133.33333333333334" r="4" class="point-start"/>
  <text x="124.66666666666667" y="125.33333333333334" class="label">T1</text>
  <circle cx="133.33333333333334" cy="116.66666666666667" r="4" class="point-start"/>
  <text x="141.33333333333334" y="108.66666666666667" class="label">T2</text>
  <circle cx="83.33333333333334" cy="183.33333333333334" r="4" class="point-start"/>
  <text x="91.33333333333334" y="175.33333333333334" class="label">T3</text>
  <circle cx="183.33333333333334" cy="83.33333333333334" r="4" class="point-start"/>
  <text x="191.33333333333334" y="75.33333333333334" class="label">T4</text>
  <circle cx="166.66666666666666" cy="266.6666666666667" r="4" class="point-start"/>
  <text x="174.66666666666666" y="258.6666666666667" class="label">T5</text>
  <circle cx="233.33333333333331" cy="133.33333333333334" r="4" class="point-start"/>
  <text x="241.33333333333331" y="125.33333333333334" class="label">T6</text>
  <circle cx="216.66666666666669" cy="233.33333333333331" r="4" class="point-start"/>
  <text x="224.66666666666669" y="225.33333333333331" class="label">T7</text>
  <circle cx="266.6666666666667" cy="183.33333333333334" r="4" class="point-start"/>
  <text x="274.6666666666667" y="175.33333333333334" class="label">T8</text>
  <path d="M 116.66666666666667 133.33333333333334 L 133.33333333333334 116.66666666666667" class="path"/>
  <polygon points="127.12132034355965,122.87867965644035 126.06066017177982,126.06066017177982 123.93933982822018,123.93933982822018" class="path-arrow"/>
  <path d="M 116.66666666666667 133.33333333333334 L 83.33333333333334 183.33333333333334" class="path"/>
  <polygon points="98.3358994113243,160.82948421634688 98.75192455849323,157.5012830389955 101.24807544150677,159.1653836276712" class="path-arrow"/>
  <path d="M 133.33333333333334 116.66666666666667 L 116.66666666666667 133.33333333333334" class="path"/>
  <polygon points="122.87867965644035,127.12132034355965 123.93933982822018,123.93933982822018 126.06066017177982,126.06066017177982" class="path-arrow"/>
  <path d="M 133.33333333333334 116.66666666666667 L 183.33333333333334 83.33333333333334" class="path"/>
  <polygon points="160.82948421634688,98.3358994113243 159.1653836276712,101.24807544150677 157.5012830389955,98.75192455849323" class="path-arrow"/>
  <path d="M 83.33333333333334 183.33333333333334 L 116.66666666666667 133.33333333333334" class="path"/>
  <polygon points="101.6641005886757,155.8371824503198 101.24807544150677,159.1653836276712 98.75192455849323,157.5012830389955" class="path-arrow"/>
  <path d="M 83.33333333333334 183.33333333333334 L 166.66666666666666 266.6666666666667" class="path"/>
  <polygon points="127.12132034355965,227.12132034355963 123.93933982822018,226.06066017177983 126.06066017177982,223.93933982822017" class="path-arrow"/>
  <path d="M 183.33333333333334 83.33333333333334 L 133.33333333333334 116.66666666666667" class="path"/>
  <polygon points="155.8371824503198,101.6641005886757 157.5012830389955,98.75192455849323 159.1653836276712,101.24807544150677" class="path-arrow"/>
  <path d="M 183.33333333333334 83.33333333333334 L 233.33333333333331 133.33333333333334" class="path"/>
  <polygon points="210.45465367689295,110.45465367689299 207.27267316155348,109.39399350511316 209.39399350511314,107.27267316155353" class="path-arrow"/>
  <path d="M 166.66666666666666 266.6666666666667 L 83.33333333333334 183.33333333333334" class="path"/>
  <polygon points="122.87867965644035,222.87867965644037 126.06066017177982,223.93933982822017 123.93933982822018,226.06066017177983" class="path-arrow"/>
  <path d="M 166.66666666666666 266.6666666666667 L 216.66666666666669 233.33333333333331" class="path"/>
  <polygon points="194.16281754968023,248.3358994113243 192.49871696100453,251.24807544150676 190.83461637232884,248.75192455849324" class="path-arrow"/>
  <path d="M 233.33333333333331 133.33333333333334 L 183.33333333333334 83.33333333333334" class="path"/>
  <polygon points="206.21201298977368,106.2120129897737 209.39399350511314,107.27267316155353 207.27267316155348,109.39399350511316" class="path-arrow"/>
  <path d="M 233.33333333333331 133.33333333333334 L 266.6666666666667 183.33333333333334" class="path"/>
  <polygon points="251.6641005886757,160.82948421634688 248.75192455849324,159.1653836276712 251.24807544150676,157.5012830389955" class="path-arrow"/>
  <path d="M 216.66666666666669 233.33333333333331 L 166.66666666666666 266.6666666666667" class="path"/>
  <polygon points="189.17051578365314,251.6641005886757 190.83461637232884,248.75192455849324 192.49871696100453,251.24807544150676" class="path-arrow"/>
  <path d="M 216.66666666666669 233.33333333333331 L 266.6666666666667 183.33333333333334" class="path"/>
  <polygon points="243.78798701022632,206.21201298977368 242.72732683844652,209.39399350511314 240.60600649488686,207.27267316155348" class="path-arrow"/>
  <path d="M 266.6666666666667 183.33333333333334 L 233.33333333333331 133.33333333333334" class="path"/>
  <polygon points="248.3358994113243,155.8371824503198 251.24807544150676,157.5012830389955 248.75192455849324,159.1653836276712" class="path-arrow"/>
  <path d="M 266.6666666666667 183.33333333333334 L 216.66666666666669 233.33333333333331" class="path"/>
  <polygon points="239.54534632310705,210.45465367689295 240.60600649488686,207.27267316155348 242.72732683844652,209.39399350511314" class="path-arrow"/>
  <rect x="410" y="50" width="170" height="180" fill="white" stroke="#ddd" stroke-width="1"/>
  <text x="420" y="60" class="title">Legend:</text>
  <rect x="420" y="77" width="12" height="12" fill="#e8f4fd" stroke="#2196f3" stroke-width="1" />
  <text x="440" y="87" class="label">Polygon</text>
  <rect x="420" y="97" width="12" height="12" fill="white" stroke="#f44336" stroke-width="1" stroke-dasharray="3,3"/>
  <text x="440" y="107" class="label">Hole</text>
  <circle cx="426" cy="123" r="4" fill="#4caf50" stroke="#333" stroke-width="1"/>
  <text x="440" y="127" class="label">Start point</text>
  <circle cx="426" cy="143" r="4" fill="#ff9800" stroke="#333" stroke-width="1"/>
  <text x="440" y="147" class="label">End point</text>
  <circle cx="426" cy="163" r="4" fill="#f44336" stroke="#333" stroke-width="1"/>
  <text x="440" y="167" class="label">Point outside navmesh</text>
  <circle cx="426" cy="183" r="4" fill="#9c27b0" stroke="#333" stroke-width="1"/>
  <text x="440" y="187" class="label">Point in hole</text>
  <line x1="420" y1="203" x2="432" y2="203" stroke="#4caf50" stroke-width="2"/>
  <text x="440" y="207" class="label">Found path</text>
</svg>