<?xml version="1.0" encoding="UTF-8"?>
<svg width="800" height="600" xmlns="http://www.w3.org/2000/svg">
  <defs>
    <style>
      .polygon { fill: #e8f4fd; stroke: #2196f3; stroke-width: 2; }
      .hole { fill: white; stroke: #f44336; stroke-width: 2; stroke-dasharray: 5,5; }
      .triangle { fill: none; stroke: #ddd; stroke-width: 0.5; opacity: 0.5; }
      .point-start { fill: #4caf50; stroke: #2e7d32; stroke-width: 2; }
      .point-end { fill: #ff9800; stroke: #f57c00; stroke-width: 2; }
      .point-outside { fill: #f44336; stroke: #c62828; stroke-width: 2; }
      .point-hole { fill: #9c27b0; stroke: #6a1b9a; stroke-width: 2; }
      .path { fill: none; stroke: #4caf50; stroke-width: 3; stroke-linecap: round; }
      .path-arrow { fill: #4caf50; }
      .label { font-family: Arial, sans-serif; font-size: 12px; fill: #333; }
      .title { font-family: Arial, sans-serif; font-size: 16px; font-weight: bold; fill: #333; }
    </style>
  </defs>
  
  <!-- Background -->
  <rect width="800" height="600" fill="#fafafa"/>
  <text x="400" y="30" class="title" text-anchor="middle" style="font-size: 20px;">Test: Points in polygon holes</text>
  <path d="M 50 50 L 300 50 L 300 300 L 50 300 Z" class="polygon" style="fill: #e3f2fd"/>
  <path d="M 150 150 L 200 150 L 200 200 L 150 200 Z" class="hole"/>
  <text x="175" y="175" class="title" text-anchor="middle">Polygon 1</text>
  <path d="M 350 50 L 550 50 L 550 200 L 450 200 L 450 300 L 350 300 Z" class="polygon" style="fill: #f3e5f5"/>
  <path d="M 475 100 L 525 100 L 525 150 L 475 150 Z" class="hole"/>
  <text x="450" y="183.33333333333334" class="title" text-anchor="middle">Polygon 2</text>
  <path d="M 150 350 L 350 350 L 250 550 Z" class="polygon" style="fill: #e8f5e8"/>
  <path d="M 225 400 L 275 400 L 250 450 Z" class="hole"/>
  <text x="250" y="416.66666666666663" class="title" text-anchor="middle">Polygon 3</text>
  <path d="M 50 50 L 150 150 L 150 200 Z" class="triangle"/>
  <path d="M 200 150 L 150 150 L 50 50 Z" class="triangle"/>
  <path d="M 50 300 L 50 50 L 150 200 Z" class="triangle"/>
  <path d="M 200 150 L 50 50 L 300 50 Z" class="triangle"/>
  <path d="M 300 300 L 50 300 L 150 200 Z" class="triangle"/>
  <path d="M 200 200 L 200 150 L 300 50 Z" class="triangle"/>
  <path d="M 300 300 L 150 200 L 200 200 Z" class="triangle"/>
  <path d="M 200 200 L 300 50 L 300 300 Z" class="triangle"/>
  <path d="M 350 50 L 475 100 L 475 150 Z" class="triangle"/>
  <path d="M 525 100 L 475 100 L 350 50 Z" class="triangle"/>
  <path d="M 450 200 L 450 300 L 350 300 Z" class="triangle"/>
  <path d="M 350 300 L 350 50 L 475 150 Z" class="triangle"/>
  <path d="M 525 100 L 350 50 L 550 50 Z" class="triangle"/>
  <path d="M 450 200 L 350 300 L 475 150 Z" class="triangle"/>
  <path d="M 525 150 L 525 100 L 550 50 Z" class="triangle"/>
  <path d="M 550 200 L 450 200 L 475 150 Z" class="triangle"/>
  <path d="M 525 150 L 550 50 L 550 200 Z" class="triangle"/>
  <path d="M 550 200 L 475 150 L 525 150 Z" class="triangle"/>
  <path d="M 150 350 L 225 400 L 250 450 Z" class="triangle"/>
  <path d="M 275 400 L 225 400 L 150 350 Z" class="triangle"/>
  <path d="M 250 550 L 150 350 L 250 450 Z" class="triangle"/>
  <path d="M 275 400 L 150 350 L 350 350 Z" class="triangle"/>
  <path d="M 350 350 L 250 550 L 250 450 Z" class="triangle"/>
  <path d="M 250 450 L 275 400 L 350 350 Z" class="triangle"/>
  <circle cx="100" cy="250" r="4" class="point-start"/>
  <text x="108" y="242" class="label">G1</text>
  <circle cx="175" cy="175" r="4" class="point-outside"/>
  <text x="183" y="167" class="label">H1 (hole)</text>
  <path d="M 100 250 L 150 150 L 233.33333333333331 133.33333333333334" class="path"/>
  <polygon points="126.34164078649988,197.31671842700024 126.34164078649988,200.67082039324993 123.65835921350012,199.32917960675007" class="path-arrow"/>
  <polygon points="194.60840869373942,141.07831826125212 191.96084086937392,143.13753768020305 191.3724924639594,140.19579565313032" class="path-arrow"/>
  <text x="150" y="135" class="label" text-anchor="middle" style="background: white;">G1 → H1 (hole)</text>
  <circle cx="375" cy="175" r="4" class="point-start"/>
  <text x="383" y="167" class="label">G2</text>
  <circle cx="500" cy="125" r="4" class="point-outside"/>
  <text x="508" y="117" class="label">H2 (hole)</text>
  <path d="M 375 175 L 475 100 L 533.3333333333334 100" class="path"/>
  <polygon points="427.4,135.7 425.9,138.7 424.1,136.3" class="path-arrow"/>
  <polygon points="507.16666666666674,100 504.16666666666674,101.5 504.16666666666674,98.5" class="path-arrow"/>
  <text x="475" y="85" class="label" text-anchor="middle" style="background: white;">G2 → H2 (hole)</text>
  <rect x="610" y="50" width="170" height="180" fill="white" stroke="#ddd" stroke-width="1"/>
  <text x="620" y="60" class="title">Legend:</text>
  <rect x="620" y="77" width="12" height="12" fill="#e8f4fd" stroke="#2196f3" stroke-width="1" />
  <text x="640" y="87" class="label">Polygon</text>
  <rect x="620" y="97" width="12" height="12" fill="white" stroke="#f44336" stroke-width="1" stroke-dasharray="3,3"/>
  <text x="640" y="107" class="label">Hole</text>
  <circle cx="626" cy="123" r="4" fill="#4caf50" stroke="#333" stroke-width="1"/>
  <text x="640" y="127" class="label">Start point</text>
  <circle cx="626" cy="143" r="4" fill="#ff9800" stroke="#333" stroke-width="1"/>
  <text x="640" y="147" class="label">End point</text>
  <circle cx="626" cy="163" r="4" fill="#f44336" stroke="#333" stroke-width="1"/>
  <text x="640" y="167" class="label">Point outside navmesh</text>
  <circle cx="626" cy="183" r="4" fill="#9c27b0" stroke="#333" stroke-width="1"/>
  <text x="640" y="187" class="label">Point in hole</text>
  <line x1="620" y1="203" x2="632" y2="203" stroke="#4caf50" stroke-width="2"/>
  <text x="640" y="207" class="label">Found path</text>
  <circle cx="175" cy="175" r="4" class="point-hole"/>
  <text x="183" y="167" class="label">H1 (hole)</text>
  <circle cx="500" cy="125" r="4" class="point-hole"/>
  <text x="508" y="117" class="label">H2 (hole)</text>
</svg>